<svg width="2396" height="1200" viewBox="0 0 2396 1200" fill="none" xmlns="http://www.w3.org/2000/svg">
<ellipse cx="645" cy="502" rx="459" ry="231" fill="#FF0932"/>
<path fill-rule="evenodd" clip-rule="evenodd" d="M2396 1164.02L2296.17 1152.03C2196.33 1140.04 1996.67 1116.05 1797 1092.06C1597.33 1068.08 1397.67 1044.09 1198 1008.11C998.333 972.135 591.013 911.263 391.347 929.252C191.68 947.241 199.667 1044.09 99.8333 1086.07L-3.8147e-06 1128.04V1200H99.8333C199.667 1200 399.333 1200 599 1200C798.667 1200 998.333 1200 1198 1200C1397.67 1200 1597.33 1200 1797 1200C1996.67 1200 2196.33 1200 2296.17 1200H2396V1164.02Z" fill="#FF0932"/>
<path d="M514.594 419H499.922V398.094H514.594C516.344 403.781 519.641 406.625 524.484 406.625C527.984 406.625 529.734 405.219 529.734 402.406C529.734 400.938 529.125 399.719 527.906 398.75C526.594 397.688 523.828 396.219 519.609 394.344C514.297 391.938 510.391 389.859 507.891 388.109C505.547 386.516 503.547 384.312 501.891 381.5C500.234 378.719 499.406 375.641 499.406 372.266C499.406 366.203 501.375 361.469 505.312 358.062C509.219 354.656 514.031 352.953 519.75 352.953C525.469 352.953 530.312 354.578 534.281 357.828V353.797H549.047V372.359H534.469C532.688 367.234 529.531 364.672 525 364.672C521.812 364.672 520.219 366.031 520.219 368.75C520.219 370.062 520.672 371.047 521.578 371.703C522.453 372.391 525.281 373.906 530.062 376.25C536.469 379.438 540.75 381.766 542.906 383.234C544 383.953 545.109 384.969 546.234 386.281C547.391 387.562 548.344 388.891 549.094 390.266C550.812 393.328 551.672 396.641 551.672 400.203C551.672 405.672 549.641 410.297 545.578 414.078C541.516 417.922 536.391 419.844 530.203 419.844C524.453 419.844 519.25 418.141 514.594 414.734V419ZM595.969 402.406V416.375C594.438 417.406 592.219 418.312 589.312 419.094C586.25 419.906 583.312 420.312 580.5 420.312C576.969 420.312 573.938 419.734 571.406 418.578C568.812 417.391 566.859 415.797 565.547 413.797C564.828 412.641 564.297 411.594 563.953 410.656C563.609 409.688 563.359 408.609 563.203 407.422C562.984 405.359 562.875 401.375 562.875 395.469V387.828H557.062V373.531H562.875V366.547L586.453 355.344V373.531H595.969V387.828H586.453V396.641C586.453 399.516 586.719 401.438 587.25 402.406C587.75 403.375 588.812 403.859 590.438 403.859C591.969 403.859 593.812 403.375 595.969 402.406ZM639.469 407.375V399.078C637.375 397.953 635.156 397.391 632.812 397.391C630.75 397.391 629.109 397.953 627.891 399.078C626.672 400.234 626.062 401.703 626.062 403.484C626.062 405.328 626.688 406.828 627.938 407.984C629.219 409.172 630.688 409.766 632.344 409.766C635.281 409.766 637.656 408.969 639.469 407.375ZM621.797 386.234L603.328 384.359C605.359 379.891 608.641 376.75 613.172 374.938C617.641 373.125 624.234 372.219 632.953 372.219C636.172 372.219 639.047 372.328 641.578 372.547C644.141 372.734 646.422 373.031 648.422 373.438C652.578 374.219 655.656 375.422 657.656 377.047C659.656 378.703 661.047 380.484 661.828 382.391C662.641 384.359 663.047 387.422 663.047 391.578V404.703H668.859V419H639.469V415.906C635.406 418.531 629.969 419.844 623.156 419.844C616.75 419.844 611.922 418.438 608.672 415.625C605.391 412.812 603.75 409.484 603.75 405.641C603.75 401.391 605.766 397.906 609.797 395.188C613.797 392.469 619.016 391.109 625.453 391.109C631.328 391.109 636 391.875 639.469 393.406V392.047C639.469 389.234 639.266 387.266 638.859 386.141C638.422 384.953 637.453 383.938 635.953 383.094C634.391 382.281 632.578 381.875 630.516 381.875C626.734 381.875 623.828 383.328 621.797 386.234ZM711.281 419H674.625V404.703H680.812V387.828H674.625V373.531H702.844V384.922C703.906 382.078 705.547 379.625 707.766 377.562C709.891 375.531 712.047 374.203 714.234 373.578C716.328 372.984 719.406 372.688 723.469 372.688V392.703C722.938 392.672 722.281 392.656 721.5 392.656C716.688 392.656 713.109 393.141 710.766 394.109C708.328 395.109 706.672 396.422 705.797 398.047C704.891 399.734 704.422 401.953 704.391 404.703H711.281V419ZM766.875 402.406V416.375C765.344 417.406 763.125 418.312 760.219 419.094C757.156 419.906 754.219 420.312 751.406 420.312C747.875 420.312 744.844 419.734 742.312 418.578C739.719 417.391 737.766 415.797 736.453 413.797C735.734 412.641 735.203 411.594 734.859 410.656C734.516 409.688 734.266 408.609 734.109 407.422C733.891 405.359 733.781 401.375 733.781 395.469V387.828H727.969V373.531H733.781V366.547L757.359 355.344V373.531H766.875V387.828H757.359V396.641C757.359 399.516 757.625 401.438 758.156 402.406C758.656 403.375 759.719 403.859 761.344 403.859C762.875 403.859 764.719 403.375 766.875 402.406ZM252.422 509.547C252.422 512.328 253.125 514.641 254.531 516.484C255.938 518.359 257.938 519.297 260.531 519.297C263.281 519.297 265.328 518.344 266.672 516.438C268.016 514.594 268.688 512.266 268.688 509.453C268.688 506.391 267.969 503.906 266.531 502C265.062 500.062 263.094 499.094 260.625 499.094C257.969 499.094 255.938 500.109 254.531 502.141C253.125 504.141 252.422 506.609 252.422 509.547ZM232.5 548.828L238.969 537.297C242.625 538.828 247.531 539.594 253.688 539.594C257.75 539.594 260.922 539.016 263.203 537.859C265.516 536.734 267 535.406 267.656 533.875C268.281 532.344 268.594 530.172 268.594 527.359C263.875 529.734 258.609 530.922 252.797 530.922C246.016 530.922 240.297 528.984 235.641 525.109C230.922 521.266 228.562 515.938 228.562 509.125C228.562 501.938 231.016 496.234 235.922 492.016C240.797 487.797 246.703 485.688 253.641 485.688C259.328 485.688 264.312 486.938 268.594 489.438V486.531H297.75V500.828H292.078V525.766C292.078 531.328 291.578 535.609 290.578 538.609C289.547 541.609 287.703 544.172 285.047 546.297C282.391 548.516 279.062 550.109 275.062 551.078C271.094 552.109 265.828 552.625 259.266 552.625C256.328 552.625 253.703 552.531 251.391 552.344C249.109 552.156 246.484 551.844 243.516 551.406C238.453 550.594 234.781 549.734 232.5 548.828ZM326.812 505.703H340.078C340.141 504.766 340.172 504.234 340.172 504.109C340.172 501.641 339.547 499.594 338.297 497.969C337.047 496.375 335.391 495.578 333.328 495.578C331.203 495.578 329.578 496.453 328.453 498.203C327.328 499.984 326.766 502.172 326.766 504.766C326.766 505.109 326.781 505.422 326.812 505.703ZM341.812 517.609L361.266 520C360.391 522.031 359.172 523.859 357.609 525.484C356.047 527.078 354.141 528.469 351.891 529.656C347.359 532.094 341.938 533.312 335.625 533.312C325.031 533.312 317.062 531.109 311.719 526.703C306.375 522.328 303.703 516.594 303.703 509.5C303.703 502.562 306.344 496.781 311.625 492.156C316.844 487.531 323.922 485.219 332.859 485.219C341.453 485.219 348.453 487.406 353.859 491.781C359.172 496.125 362 502.734 362.344 511.609H326.531C326.625 518.984 329.375 522.672 334.781 522.672C338.031 522.672 340.375 520.984 341.812 517.609ZM406.969 515.406V529.375C405.438 530.406 403.219 531.312 400.312 532.094C397.25 532.906 394.312 533.312 391.5 533.312C387.969 533.312 384.938 532.734 382.406 531.578C379.812 530.391 377.859 528.797 376.547 526.797C375.828 525.641 375.297 524.594 374.953 523.656C374.609 522.688 374.359 521.609 374.203 520.422C373.984 518.359 373.875 514.375 373.875 508.469V500.828H368.062V486.531H373.875V479.547L397.453 468.344V486.531H406.969V500.828H397.453V509.641C397.453 512.516 397.719 514.438 398.25 515.406C398.75 516.375 399.812 516.859 401.438 516.859C402.969 516.859 404.812 516.375 406.969 515.406ZM450.938 515.406V529.375C449.406 530.406 447.188 531.312 444.281 532.094C441.219 532.906 438.281 533.312 435.469 533.312C431.938 533.312 428.906 532.734 426.375 531.578C423.781 530.391 421.828 528.797 420.516 526.797C419.797 525.641 419.266 524.594 418.922 523.656C418.578 522.688 418.328 521.609 418.172 520.422C417.953 518.359 417.844 514.375 417.844 508.469V500.828H412.031V486.531H417.844V479.547L441.422 468.344V486.531H450.938V500.828H441.422V509.641C441.422 512.516 441.688 514.438 442.219 515.406C442.719 516.375 443.781 516.859 445.406 516.859C446.938 516.859 448.781 516.375 450.938 515.406ZM490.078 532H457.875V517.703H462.562V500.828H457.875V486.531H486.141V517.703H490.078V532ZM460.594 473.688C460.594 471.219 461.859 469.234 464.391 467.734C466.891 466.234 469.984 465.484 473.672 465.484C477.453 465.484 480.5 466.266 482.812 467.828C485.094 469.422 486.234 471.359 486.234 473.641C486.234 476.109 485.047 478.062 482.672 479.5C480.266 480.969 477.234 481.703 473.578 481.703C469.859 481.703 466.766 481.031 464.297 479.688C461.828 478.375 460.594 476.375 460.594 473.688ZM532.781 532H496.781V517.703H502.641V500.828H496.781V486.531H526.219V492.297C532 487.891 538.203 485.688 544.828 485.688C550.641 485.688 555.016 487.297 557.953 490.516C560.859 493.734 562.312 498.906 562.312 506.031V517.703H567.703V532H538.734V511.797C538.734 507.391 538.359 504.484 537.609 503.078C536.797 501.703 535.25 501.016 532.969 501.016C530.875 501.016 528.625 501.812 526.219 503.406V517.703H532.781V532ZM598.453 509.547C598.453 512.328 599.156 514.641 600.562 516.484C601.969 518.359 603.969 519.297 606.562 519.297C609.312 519.297 611.359 518.344 612.703 516.438C614.047 514.594 614.719 512.266 614.719 509.453C614.719 506.391 614 503.906 612.562 502C611.094 500.062 609.125 499.094 606.656 499.094C604 499.094 601.969 500.109 600.562 502.141C599.156 504.141 598.453 506.609 598.453 509.547ZM578.531 548.828L585 537.297C588.656 538.828 593.562 539.594 599.719 539.594C603.781 539.594 606.953 539.016 609.234 537.859C611.547 536.734 613.031 535.406 613.688 533.875C614.312 532.344 614.625 530.172 614.625 527.359C609.906 529.734 604.641 530.922 598.828 530.922C592.047 530.922 586.328 528.984 581.672 525.109C576.953 521.266 574.594 515.938 574.594 509.125C574.594 501.938 577.047 496.234 581.953 492.016C586.828 487.797 592.734 485.688 599.672 485.688C605.359 485.688 610.344 486.938 614.625 489.438V486.531H643.781V500.828H638.109V525.766C638.109 531.328 637.609 535.609 636.609 538.609C635.578 541.609 633.734 544.172 631.078 546.297C628.422 548.516 625.094 550.109 621.094 551.078C617.125 552.109 611.859 552.625 605.297 552.625C602.359 552.625 599.734 552.531 597.422 552.344C595.141 552.156 592.516 551.844 589.547 551.406C584.484 550.594 580.812 549.734 578.531 548.828ZM710.906 515.406V529.375C709.375 530.406 707.156 531.312 704.25 532.094C701.188 532.906 698.25 533.312 695.438 533.312C691.906 533.312 688.875 532.734 686.344 531.578C683.75 530.391 681.797 528.797 680.484 526.797C679.766 525.641 679.234 524.594 678.891 523.656C678.547 522.688 678.297 521.609 678.141 520.422C677.922 518.359 677.812 514.375 677.812 508.469V500.828H672V486.531H677.812V479.547L701.391 468.344V486.531H710.906V500.828H701.391V509.641C701.391 512.516 701.656 514.438 702.188 515.406C702.688 516.375 703.75 516.859 705.375 516.859C706.906 516.859 708.75 516.375 710.906 515.406ZM752.531 532H716.625V517.703H722.578V481.094H716.625V466.797H746.156V492.016C752.438 487.797 758.609 485.688 764.672 485.688C770.016 485.688 774.25 487.234 777.375 490.328C780.5 493.453 782.062 498.969 782.062 506.875V517.703H787.406V532H758.484V513.391C758.484 507.734 758.156 504.188 757.5 502.75C756.812 501.312 755.375 500.594 753.188 500.594C750.906 500.594 748.562 501.391 746.156 502.984V517.703H752.531V532ZM826.078 532H793.875V517.703H798.562V500.828H793.875V486.531H822.141V517.703H826.078V532ZM796.594 473.688C796.594 471.219 797.859 469.234 800.391 467.734C802.891 466.234 805.984 465.484 809.672 465.484C813.453 465.484 816.5 466.266 818.812 467.828C821.094 469.422 822.234 471.359 822.234 473.641C822.234 476.109 821.047 478.062 818.672 479.5C816.266 480.969 813.234 481.703 809.578 481.703C805.859 481.703 802.766 481.031 800.297 479.688C797.828 478.375 796.594 476.375 796.594 473.688ZM868.781 532H832.781V517.703H838.641V500.828H832.781V486.531H862.219V492.297C868 487.891 874.203 485.688 880.828 485.688C886.641 485.688 891.016 487.297 893.953 490.516C896.859 493.734 898.312 498.906 898.312 506.031V517.703H903.703V532H874.734V511.797C874.734 507.391 874.359 504.484 873.609 503.078C872.797 501.703 871.25 501.016 868.969 501.016C866.875 501.016 864.625 501.812 862.219 503.406V517.703H868.781V532ZM934.453 509.547C934.453 512.328 935.156 514.641 936.562 516.484C937.969 518.359 939.969 519.297 942.562 519.297C945.312 519.297 947.359 518.344 948.703 516.438C950.047 514.594 950.719 512.266 950.719 509.453C950.719 506.391 950 503.906 948.562 502C947.094 500.062 945.125 499.094 942.656 499.094C940 499.094 937.969 500.109 936.562 502.141C935.156 504.141 934.453 506.609 934.453 509.547ZM914.531 548.828L921 537.297C924.656 538.828 929.562 539.594 935.719 539.594C939.781 539.594 942.953 539.016 945.234 537.859C947.547 536.734 949.031 535.406 949.688 533.875C950.312 532.344 950.625 530.172 950.625 527.359C945.906 529.734 940.641 530.922 934.828 530.922C928.047 530.922 922.328 528.984 917.672 525.109C912.953 521.266 910.594 515.938 910.594 509.125C910.594 501.938 913.047 496.234 917.953 492.016C922.828 487.797 928.734 485.688 935.672 485.688C941.359 485.688 946.344 486.938 950.625 489.438V486.531H979.781V500.828H974.109V525.766C974.109 531.328 973.609 535.609 972.609 538.609C971.578 541.609 969.734 544.172 967.078 546.297C964.422 548.516 961.094 550.109 957.094 551.078C953.125 552.109 947.859 552.625 941.297 552.625C938.359 552.625 935.734 552.531 933.422 552.344C931.141 552.156 928.516 551.844 925.547 551.406C920.484 550.594 916.812 549.734 914.531 548.828ZM1002.75 532.562H988.172V518.125H1001.81C1005.31 521.812 1009.14 523.656 1013.3 523.656C1017.48 523.656 1019.58 522.797 1019.58 521.078C1019.58 520.203 1019.12 519.531 1018.22 519.062C1017.28 518.562 1014.8 517.828 1010.77 516.859C1007.52 515.984 1003.92 514.969 999.984 513.812C996.578 512.844 993.891 511.625 991.922 510.156C989.891 508.688 988.531 507.25 987.844 505.844C987.094 504.438 986.719 502.594 986.719 500.312C986.719 495.281 988.5 491.578 992.062 489.203C995.594 486.859 1000.08 485.688 1005.52 485.688C1011.14 485.688 1015.86 486.75 1019.67 488.875V486.531H1034.06V499.75H1020.75C1017.44 496.594 1013.5 495.016 1008.94 495.016C1005.34 495.016 1003.55 495.969 1003.55 497.875C1003.55 498.781 1004.08 499.375 1005.14 499.656C1006.05 499.938 1009.05 500.609 1014.14 501.672C1019.92 502.891 1024.44 504.109 1027.69 505.328C1030.91 506.547 1033.33 508.156 1034.95 510.156C1036.55 512.156 1037.34 514.609 1037.34 517.516C1037.34 522.766 1035.39 526.641 1031.48 529.141C1027.61 531.609 1022.83 532.844 1017.14 532.844C1011.48 532.844 1006.69 531.812 1002.75 529.75V532.562ZM488.672 595.406V629.391H491.062C497 629.391 500.859 627.812 502.641 624.656C504.391 621.5 505.266 617.531 505.266 612.75C505.266 609.875 504.891 607.031 504.141 604.219C503.359 601.406 501.984 599.234 500.016 597.703C498.078 596.172 494.609 595.406 489.609 595.406H488.672ZM488.672 645H458.344V629.391H463.453V595.406H458.344V579.797H489.562C496.688 579.797 502.5 580.234 507 581.109C511.531 581.984 515.797 583.781 519.797 586.5C523.766 589.25 526.891 592.969 529.172 597.656C530.297 599.906 531.156 602.312 531.75 604.875C532.344 607.438 532.641 610.125 532.641 612.938C532.641 618.594 531.438 623.75 529.031 628.406C526.656 633.031 523.641 636.578 519.984 639.047C516.422 641.516 512.516 643.125 508.266 643.875C504.047 644.625 497.516 645 488.672 645ZM570.516 612.234C570.516 619.484 571.219 624.375 572.625 626.906C573.969 629.469 576.078 630.75 578.953 630.75C581.797 630.75 583.922 629.516 585.328 627.047C586.734 624.547 587.438 619.609 587.438 612.234C587.438 605.078 586.75 600.203 585.375 597.609C584.031 595.047 581.891 593.766 578.953 593.766C576.141 593.766 574.031 595 572.625 597.469C571.219 599.938 570.516 604.859 570.516 612.234ZM542.203 612.234C542.203 606.797 543.531 601.531 546.188 596.438C548.812 591.375 552.891 587.109 558.422 583.641C560.391 582.422 562.406 581.453 564.469 580.734C566.562 580.016 568.828 579.469 571.266 579.094C573.703 578.688 576.266 578.484 578.953 578.484C590.641 578.484 599.688 581.906 606.094 588.75C609.281 592.125 611.688 595.781 613.312 599.719C614.938 603.656 615.75 607.828 615.75 612.234C615.75 621.328 612.438 629.234 605.812 635.953C599.188 642.672 590.234 646.031 578.953 646.031C568.047 646.031 559.203 642.875 552.422 636.562C545.609 630.281 542.203 622.172 542.203 612.234ZM650.391 645H623.625V629.391H629.344V595.406H623.625V579.797H654.516L678.234 613.875V595.406H672.938V579.797H699.234V595.406H693.562V645.844H672.094L644.625 606.422V629.391H650.391V645ZM769.078 645H706.875V629.391H711.938V595.406H706.781V579.797H769.078V600.656H751.969V595.406H737.156V605.438H750.047V618.703H737.156V629.391H751.969V624.141H769.078V645ZM805.219 645H781.828V627.938H805.219V645ZM801.469 618.797H785.484L782.203 598.5V579.797H804.844V598.125L801.469 618.797Z" fill="white"/>
<path fill-rule="evenodd" clip-rule="evenodd" d="M72 1200L108 1150C144 1100 246 1081 240 981C234 881 120 700 78 600C36 500 36 400 84 300C132 200 228 100 276 50L324 0H0V50C0 100 0 200 0 300C0 400 0 500 0 600C0 700 0 800 0 900C0 1000 0 1100 0 1150V1200H72Z" fill="#FF0932"/>
</svg>
